<svg width="512" height="512" viewBox="0 0 512 512" fill="none" xmlns="http://www.w3.org/2000/svg">
<g clip-path="url(#clip0_103_20)">
<rect x="2.53651" y="483.64" width="656.527" height="36.4737" rx="18.2369" transform="rotate(-45 2.53651 483.64)" fill="black"/>
<rect x="164.696" y="250.556" width="364.737" height="36.4737" rx="18.2369" transform="rotate(-45 164.696 250.556)" fill="black"/>
<rect x="180.816" y="163.512" width="218.842" height="36.4737" rx="18.2369" transform="rotate(-45 180.816 163.512)" fill="black"/>
<rect x="322.665" y="305.361" width="218.842" height="36.4737" rx="18.2369" transform="rotate(-45 322.665 305.361)" fill="black"/>
<rect x="235.621" y="321.481" width="364.737" height="36.4737" rx="18.2369" transform="rotate(-45 235.621 321.481)" fill="black"/>
<rect x="63.7897" y="493.312" width="72.9475" height="36.4737" rx="18.2369" transform="rotate(-45 63.7897 493.312)" fill="black"/>
<rect x="-7.13504" y="422.387" width="72.9475" height="36.4737" rx="18.2369" transform="rotate(-45 -7.13504 422.387)" fill="black"/>
</g>
<defs>
<clipPath id="clip0_103_20">
<rect width="512" height="512" fill="white"/>
</clipPath>
</defs>
</svg>
